# xmcd
#
# Track frame offsets:
#	150
#	18830
#	39775
#	50190
#	70623
#	83725
#	95133
#	112505
#	123918
#	142553
#	158623
#	176380
#	187893
#	208615
#	218795
#	233140
#	250543
#	261595
#
# Disc length: 3679 seconds
#
# Revision: 1
# Processed by: cddbd v1.5.2PL0 Copyright (c) Steve Scherf et al.
# Submitted via: audiograbber 1.83.01
#
DISCID=dd0e5d12
DTITLE=Jim Finnigan - Irish Harvest Day
DYEAR=1900
DGENRE=
TTITLE0=Irish Harvest Day
TTITLE1=Gold And Silver Days
TTITLE2=Sunset Years Of Life
TTITLE3=Roads To Kildare
TTITLE4=My Lovely Sweet Mayo
TTITLE5=Don't Forget Me Little Darlin'
TTITLE6=I'll Take You Home Again Kathleen
TTITLE7=Mother's Rockin' Chair
TTITLE8=Danny Boy
TTITLE9=Achey Breaky Heart
TTITLE10=Sweet Forget Me Not
TTITLE11=Sioux City Sue
TTITLE12=Dungarvan My Hometown
TTITLE13=Happy Faces
TTITLE14=He Stopped Loving Her Today
TTITLE15=It's Our Anniversary
TTITLE16=Little Country Town In Ireland
TTITLE17=O Mein Papa
EXTD=
EXTT0=
EXTT1=
EXTT2=
EXTT3=
EXTT4=
EXTT5=
EXTT6=
EXTT7=
EXTT8=
EXTT9=
EXTT10=
EXTT11=
EXTT12=
EXTT13=
EXTT14=
EXTT15=
EXTT16=
EXTT17=
PLAYORDER=
